inDegrees=no
num_controls=7
num_derivatives=13
num_iterations=50
num_multipliers=7
num_parameters=0
num_slacks=7
num_states=26
objective=0.481167
objective_accelerations=0.010467
objective_balance=0.001748
objective_effort=0.013669
objective_height=0.446993
objective_ligament=0.008289
solver_duration=597.506113
status=Solve_Succeeded
success=true
DataType=double
version=3
OpenSimVersion=4.5
endheader
time	/jointset/ground_pelvis/pelvis_tilt/value	/jointset/ground_pelvis/pelvis_tx/value	/jointset/ground_pelvis/pelvis_ty/value	/jointset/hip_r/hip_flexion_r/value	/jointset/hip_r/hip_adduction_r/value	/jointset/hip_r/hip_rotation_r/value	/jointset/back/lumbar_extension/value	/jointset/patellofemoral_r/patellar_flexion_r/value	/jointset/knee_r/knee_flexion_r/value	/jointset/knee_r/knee_adduction_r/value	/jointset/knee_r/knee_rotation_r/value	/jointset/ankle_r/ankle_angle_r/value	/jointset/subtalar_r/subtalar_angle_r/value	/jointset/ground_pelvis/pelvis_tilt/speed	/jointset/ground_pelvis/pelvis_tx/speed	/jointset/ground_pelvis/pelvis_ty/speed	/jointset/hip_r/hip_flexion_r/speed	/jointset/hip_r/hip_adduction_r/speed	/jointset/hip_r/hip_rotation_r/speed	/jointset/back/lumbar_extension/speed	/jointset/patellofemoral_r/patellar_flexion_r/speed	/jointset/knee_r/knee_flexion_r/speed	/jointset/knee_r/knee_adduction_r/speed	/jointset/knee_r/knee_rotation_r/speed	/jointset/ankle_r/ankle_angle_r/speed	/jointset/subtalar_r/subtalar_angle_r/speed	/forceset/tau_hip_flexion_r	/forceset/tau_hip_adduction_r	/forceset/tau_hip_rotation_r	/forceset/tau_knee_flexion_r	/forceset/tau_ankle_angle_r	/forceset/tau_subtalar_angle_r	/forceset/tau_lumbar_extension	lambda_cid13_p0	lambda_cid14_p0	lambda_cid14_p1	lambda_cid14_p2	lambda_cid14_p3	lambda_cid14_p4	lambda_cid14_p5	/jointset/ground_pelvis/pelvis_tilt/accel	/jointset/ground_pelvis/pelvis_tx/accel	/jointset/ground_pelvis/pelvis_ty/accel	/jointset/hip_r/hip_flexion_r/accel	/jointset/hip_r/hip_adduction_r/accel	/jointset/hip_r/hip_rotation_r/accel	/jointset/back/lumbar_extension/accel	/jointset/patellofemoral_r/patellar_flexion_r/accel	/jointset/knee_r/knee_flexion_r/accel	/jointset/knee_r/knee_adduction_r/accel	/jointset/knee_r/knee_rotation_r/accel	/jointset/ankle_r/ankle_angle_r/accel	/jointset/subtalar_r/subtalar_angle_r/accel	gamma_cid13_p0	gamma_cid14_p0	gamma_cid14_p1	gamma_cid14_p2	gamma_cid14_p3	gamma_cid14_p4	gamma_cid14_p5
1	0.1076913675615912	0.04106038902307985	0.9164856870171249	0.3185408134000267	-0.1461611151812793	-0.1325107749789266	-0.7850853445094835	0.4576168916105615	0.4576168916105146	-0.07407048698234305	0.04783360731085286	0.1190550635517578	0.1761981389858862	0.06192868952550848	0.005237332422679885	0.007873505497809116	-0.08692978519916515	-0.01330282777128247	-0.01537486883627776	0.02341507410272267	-0.01918406970014245	-0.01918406970014296	0.02606666437583843	0.0234983345514336	0.003526489258833753	-0.01559179812267161	-0.1203550793768385	0.05483883079043295	0.01811906149065267	-0.1901470358412413	0.0554895042743838	-0.05699104396107612	0.2247347049478601	-27.26907764014692	-33.06298344385373	-31.01673368324996	5.911051924054854	0.6933412808694355	-683.5360531797393	23.44978988630072	-0.1530641643513348	0.308307100892473	0.1462433991358775	-0.7850811597928748	-0.02080997303187181	0.02348259674948139	2.071832099075863	-0.9995061090346025	-0.9995061090345806	0.2656389420089053	-0.1346635909668511	-0.1188909386283424	-0.07446567910590966	3.175353690880873e-11	7.302263268637006e-10	5.325453975583567e-09	-1.990477302062725e-09	-1.092258790041654e-09	-3.189957372880305e-09	3.581021718832841e-09
1.01	0.1083027104539619	0.04112816634228997	0.916571669530522	0.3176327624656635	-0.1462953297750027	-0.1326630720270611	-0.7847473635509216	0.4573754320553894	0.4573754320553783	-0.0737962003613428	0.04806175895306703	0.1190844684902854	0.1760383383252277	0.0603407924889586	0.008319336131468881	0.009323043472032375	-0.09468478557264857	-0.01354670461661829	-0.01507124846913314	0.04417864372701759	-0.02910846717675508	-0.0291084671767569	0.02881025805657305	0.02212464312455443	0.002353508449544481	-0.0163774354536454	-0.1198676643322149	0.05474427692359593	0.01813149678132015	-0.1903936402922528	0.05570268269230469	-0.05701540489602712	0.2243669255210704	-27.27338375858736	-32.98694809393707	-31.01544565314608	5.91249741471326	0.6879995056304542	-683.4255911230962	23.45516142893699	-0.1615168459800545	0.3083275574360551	0.1443150951507677	-0.7713670088072068	-0.02716847221223293	0.03579486053896713	2.078248311696839	-0.9890004623716173	-0.9890004623718932	0.2816599309451958	-0.1398251177596915	-0.1166501651379222	-0.08197753631647305	9.414619441375195e-11	6.029102698467016e-10	4.977604107555657e-09	-2.705630114229168e-09	-7.797050335382505e-10	-4.214531676961772e-09	3.782760627582999e-09
1.02	0.1088982015014366	0.04122679980890041	0.9166721486433788	0.3166470300210233	-0.1464321815235648	-0.1328119342507563	-0.7842018211125986	0.4570347097463754	0.4570347097463883	-0.07349388973356823	0.04827595304116693	0.1191021139181089	0.1758704083360147	0.05875832054547318	0.01140856190274666	0.01077282538967311	-0.1024660872533894	-0.01383025873906459	-0.01468790394830867	0.06492737005493925	-0.03903662046924769	-0.03903662046925085	0.03167146573088579	0.02070682372922733	0.001174587117908584	-0.01721766383355344	-0.1193802492876518	0.0546497230567537	0.01814393207196305	-0.1906402447432854	0.05591586111022304	-0.05703976583098544	0.223999146094235	-27.27878558568032	-32.91661517407173	-31.013797417819	5.912333544383197	0.6758971811331392	-683.4120883414823	23.47750246032002	-0.1519791457384519	0.3097515133902495	0.1462921878193745	-0.7903414212443699	-0.02874542845396609	0.03942742748544164	2.068863439801207	-1.000257272210602	-1.000257272210592	0.2891617407245196	-0.1434891846564361	-0.1200790430976457	-0.0853838888927432	3.748402386124842e-12	2.381185106486125e-10	5.455325096167001e-09	-1.532941037849247e-09	-5.647283891591267e-10	-4.521758409176784e-09	3.539253793539303e-09
1.03	0.1094777470332808	0.04135635858839869	0.9167871001345647	0.3155835788850135	-0.1465719294454061	-0.132956858339109	-0.7834487306540887	0.4565947182825519	0.4565947182825398	-0.07316278666202743	0.04847589663338595	0.1191079749619628	0.1756940004019082	0.05713664731115908	0.01450408680498816	0.01221482082516206	-0.110205570575716	-0.01411221373121779	-0.01431262490548763	0.08570203824058342	-0.04895895936674565	-0.04895895936674724	0.03452821935563623	0.0192891009048823	1.289299841987665e-07	-0.01805334969290353	-0.1187489295263357	0.05456040232028915	0.01815236111723133	-0.1908717633792223	0.05615433549242366	-0.05707151996068858	0.2234766622047406	-27.28525508260702	-32.82903004997905	-31.01341946167133	5.913606000020559	0.666207266909002	-683.2452603603647	23.48200965238947	-0.1693821368821965	0.3095868310285271	0.1427544519143757	-0.7629663896797522	-0.02685313620681645	0.0342210304909089	2.083465996971475	-0.9878152410758968	-0.9878152410757367	0.2807937201378147	-0.1398330412044004	-0.1157533243583941	-0.08107403596362808	-8.820847586122325e-11	-1.290964700003053e-10	5.941470277193035e-09	-3.409882687290457e-10	-3.507474295975981e-10	-4.82166526820948e-09	3.291203635589546e-09
1.04	0.110040651687865	0.04151689938739654	0.9169163918262057	0.3144432899953864	-0.1467142834374904	-0.1330985010594722	-0.7824875540159171	0.4560555848212455	0.4560555848211987	-0.07280374374488185	0.04866187915538228	0.1191021666003944	0.1755095529889067	0.05543014509266693	0.01760496580265729	0.01364086548069227	-0.1178336379761721	-0.01435147278780271	-0.01403163035024825	0.1065446059872511	-0.05886501996650267	-0.05886501996650269	0.03725943485188692	0.01791460968530448	-0.001159293966681216	-0.01882555961255308	-0.1181176097650607	0.05447108158381928	0.01816079016247584	-0.191103282015173	0.05639280987462351	-0.05710327409039851	0.2229541783152152	-27.29278728539454	-32.74715402567062	-31.01270319180372	5.9132962597373	0.6497285865959649	-683.175434574723	23.50342854459423	-0.1689449425740597	0.3108223324757875	0.1431020318276303	-0.7680582368702742	-0.02020624134030838	0.02057052996909914	2.082443352005908	-0.9970016126624203	-0.9970016126624083	0.2640541150245562	-0.1348428637029915	-0.1170719848458403	-0.07268870095262399	-4.014086091692345e-11	-2.919058200974356e-10	5.615758874944476e-09	-1.061653727953723e-09	-1.802811309982465e-11	-5.885540387644661e-09	3.479961527216509e-09
